<?xml version="1.0" encoding="UTF-8" standalone="no"?>
<!-- Created with Inkscape (http://www.inkscape.org/) -->

<svg
   width="800"
   height="800"
   viewBox="0 0 211.66664 211.66664"
   version="1.1"
   id="svg5"
   xmlns="http://www.w3.org/2000/svg"
   xmlns:svg="http://www.w3.org/2000/svg">
  <defs
     id="defs2" />
  <g
     id="layer1">
    <path
       id="path286"
       style="fill:#ed6004;fill-opacity:1;stroke:none;stroke-width:1;stroke-linecap:round;stroke-linejoin:round"
       d="M 105.83333,36.004004 A 44.423077,44.423077 0 0 0 61.410206,80.427133 44.423077,44.423077 0 0 0 86.089837,120.20298 v 61.44951 a 51.91217,14.675921 0 0 0 19.743493,1.11363 51.91217,14.675921 0 0 0 19.7435,-1.1033 V 120.20298 A 44.423077,44.423077 0 0 0 150.25646,80.427133 44.423077,44.423077 0 0 0 105.83333,36.004004 Z" />
    <path
       id="path399"
       style="fill:#a0a0a0;fill-opacity:1;stroke:none;stroke-width:1;stroke-linecap:round;stroke-linejoin:round"
       d="m 81.615171,152.68576 a 93.782051,26.512819 0 0 0 -69.563712,25.61342 93.782051,26.512819 0 0 0 93.781871,26.51259 93.782051,26.512819 0 0 0 93.78188,-26.51259 93.782051,26.512819 0 0 0 -69.56423,-25.61239 v 8.05171 a 51.91217,14.675921 0 0 1 27.69443,12.97957 51.91217,14.675921 0 0 1 -51.91208,14.6761 51.91217,14.675921 0 0 1 -51.912075,-14.6761 51.91217,14.675921 0 0 1 27.693916,-12.96562 z" />
    <path
       id="path5050"
       style="color:#000000;fill:#a0a0a0;stroke-linecap:round;stroke-linejoin:round;-inkscape-stroke:none;fill-opacity:1"
       d="m 169.45632,17.219962 -19.14818,19.148185 c 10.95625,11.190878 17.68729,26.536899 17.68729,43.545146 0,17.008702 -6.73155,32.355207 -17.68833,43.546177 l 19.14871,19.1487 c 15.92897,-16.16235 25.78964,-38.32009 25.78964,-62.694877 0,-24.374531 -9.86047,-46.531561 -25.78913,-62.693331 z m -127.245463,5.17e-4 c -15.92849,16.161747 -25.78964,38.318416 -25.78964,62.692814 0,24.374787 9.86067,46.532527 25.78964,62.694877 l 19.1487,-19.14819 c -10.95693,-11.19099 -17.68832,-26.537851 -17.68832,-43.546687 0,-17.008174 6.73113,-32.35428 17.68729,-43.545146 z" />
  </g>
</svg>
